# ProBuilder 4.5.0
# https://unity3d.com/unity/features/worldbuilding/probuilder
# 2021/05/03 9:10:43 AM

mtllib ./shalf.mtl
o shalf

g piller
v -5 0.25 -18.5
v -5.5 0.25 -18.5
v -5 12.5 -18.5
v -5.5 12.5 -18.5
v -5.5 0.25 -19
v -5.5 12.5 -19
v -5 0.25 -19
v -5 12.5 -19

vt 0 0
vt -0.5 0
vt 0 12.25
vt -0.5 12.25
vt -1 0
vt -1 12.25
vt 0.5 0
vt 0.5 12.25
vt 1 0
vt 1 12.25
vt 0 -0.5
vt 0.5 -0.5
vt 0 -1
vt 0.5 -1
vt -0.5 -1
vt -0.5 -0.5

vn 0 0 1
vn -1 0 0
vn 0 0 -1
vn 1 0 0
vn 0 1 0
vn 0 -1 0

usemtl ProBuilderDefault
f 3/3/1 4/4/1 2/2/1 1/1/1
f 4/4/2 6/6/2 5/5/2 2/2/2
f 6/8/3 8/3/3 7/1/3 5/7/3
f 8/10/4 3/8/4 1/7/4 7/9/4
f 8/13/5 6/14/5 4/12/5 3/11/5
f 1/11/6 2/16/6 5/15/6 7/13/6

g Pannel
v -5.25 0.25 -18.75
v -14.75 0.25 -18.75
v -5.25 0.5 -18.75
v -14.75 0.5 -18.75
v -14.75 0.25 -21.75
v -14.75 0.5 -21.75
v -5.25 0.25 -21.75
v -5.25 0.5 -21.75

vt -0.25 0
vt -9.75 0
vt -0.25 0.25
vt -9.75 0.25
vt 2 0
vt -1 0
vt 2 0.25
vt -1 0.25
vt 9.75 0
vt 0.25 0
vt 9.75 0.25
vt 0.25 0.25
vt 1 0
vt -2 0
vt 1 0.25
vt -2 0.25
vt 0.25 2
vt 9.75 2
vt 0.25 -1
vt 9.75 -1
vt -0.25 -1
vt -9.75 -1
vt -0.25 2
vt -9.75 2

vn 0 0 1
vn -1 0 0
vn 0 0 -1
vn 1 0 0
vn 0 1 0
vn 0 -1 0

usemtl ProBuilderDefault
f 11/19/7 12/20/7 10/18/7 9/17/7
f 12/23/8 14/24/8 13/22/8 10/21/8
f 14/27/9 16/28/9 15/26/9 13/25/9
f 16/31/10 11/32/10 9/30/10 15/29/10
f 16/35/11 14/36/11 12/34/11 11/33/11
f 9/39/12 10/40/12 13/38/12 15/37/12

g Pannel
v -5.25 9 -18.75
v -14.75 9 -18.75
v -5.25 9.25 -18.75
v -14.75 9.25 -18.75
v -14.75 9 -21.75
v -14.75 9.25 -21.75
v -5.25 9 -21.75
v -5.25 9.25 -21.75

vt -0.25 0
vt -9.75 0
vt -0.25 0.25
vt -9.75 0.25
vt 2 0
vt -1 0
vt 2 0.25
vt -1 0.25
vt 9.75 0
vt 0.25 0
vt 9.75 0.25
vt 0.25 0.25
vt 1 0
vt -2 0
vt 1 0.25
vt -2 0.25
vt 0.25 2
vt 9.75 2
vt 0.25 -1
vt 9.75 -1
vt -0.25 -1
vt -9.75 -1
vt -0.25 2
vt -9.75 2

vn 0 0 1
vn -1 0 0
vn 0 0 -1
vn 1 0 0
vn 0 1 0
vn 0 -1 0

usemtl ProBuilderDefault
f 19/43/13 20/44/13 18/42/13 17/41/13
f 20/47/14 22/48/14 21/46/14 18/45/14
f 22/51/15 24/52/15 23/50/15 21/49/15
f 24/55/16 19/56/16 17/54/16 23/53/16
f 24/59/17 22/60/17 20/58/17 19/57/17
f 17/63/18 18/64/18 21/62/18 23/61/18

g Pannel
v -5.25 6 -18.75
v -14.75 6 -18.75
v -5.25 6.25 -18.75
v -14.75 6.25 -18.75
v -14.75 6 -21.75
v -14.75 6.25 -21.75
v -5.25 6 -21.75
v -5.25 6.25 -21.75

vt -0.25 0
vt -9.75 0
vt -0.25 0.25
vt -9.75 0.25
vt 2 0
vt -1 0
vt 2 0.25
vt -1 0.25
vt 9.75 0
vt 0.25 0
vt 9.75 0.25
vt 0.25 0.25
vt 1 0
vt -2 0
vt 1 0.25
vt -2 0.25
vt 0.25 2
vt 9.75 2
vt 0.25 -1
vt 9.75 -1
vt -0.25 -1
vt -9.75 -1
vt -0.25 2
vt -9.75 2

vn 0 0 1
vn -1 0 0
vn 0 0 -1
vn 1 0 0
vn 0 1 0
vn 0 -1 0

usemtl ProBuilderDefault
f 27/67/19 28/68/19 26/66/19 25/65/19
f 28/71/20 30/72/20 29/70/20 26/69/20
f 30/75/21 32/76/21 31/74/21 29/73/21
f 32/79/22 27/80/22 25/78/22 31/77/22
f 32/83/23 30/84/23 28/82/23 27/81/23
f 25/87/24 26/88/24 29/86/24 31/85/24

g Pannel
v -5.25 3 -18.75
v -14.75 3 -18.75
v -5.25 3.25 -18.75
v -14.75 3.25 -18.75
v -14.75 3 -21.75
v -14.75 3.25 -21.75
v -5.25 3 -21.75
v -5.25 3.25 -21.75

vt -0.25 0
vt -9.75 0
vt -0.25 0.25
vt -9.75 0.25
vt 2 0
vt -1 0
vt 2 0.25
vt -1 0.25
vt 9.75 0
vt 0.25 0
vt 9.75 0.25
vt 0.25 0.25
vt 1 0
vt -2 0
vt 1 0.25
vt -2 0.25
vt 0.25 2
vt 9.75 2
vt 0.25 -1
vt 9.75 -1
vt -0.25 -1
vt -9.75 -1
vt -0.25 2
vt -9.75 2

vn 0 0 1
vn -1 0 0
vn 0 0 -1
vn 1 0 0
vn 0 1 0
vn 0 -1 0

usemtl ProBuilderDefault
f 35/91/25 36/92/25 34/90/25 33/89/25
f 36/95/26 38/96/26 37/94/26 34/93/26
f 38/99/27 40/100/27 39/98/27 37/97/27
f 40/103/28 35/104/28 33/102/28 39/101/28
f 40/107/29 38/108/29 36/106/29 35/105/29
f 33/111/30 34/112/30 37/110/30 39/109/30

g piller
v -14.5 0.25 -21.5
v -15 0.25 -21.5
v -14.5 12.5 -21.5
v -15 12.5 -21.5
v -15 0.25 -22
v -15 12.5 -22
v -14.5 0.25 -22
v -14.5 12.5 -22

vt 0 0
vt -0.5 0
vt 0 12.25
vt -0.5 12.25
vt -1 0
vt -1 12.25
vt 0.5 0
vt 0.5 12.25
vt 1 0
vt 1 12.25
vt 0 -0.5
vt 0.5 -0.5
vt 0 -1
vt 0.5 -1
vt -0.5 -1
vt -0.5 -0.5

vn 0 0 1
vn -1 0 0
vn 0 0 -1
vn 1 0 0
vn 0 1 0
vn 0 -1 0

usemtl ProBuilderDefault
f 43/115/31 44/116/31 42/114/31 41/113/31
f 44/116/32 46/118/32 45/117/32 42/114/32
f 46/120/33 48/115/33 47/113/33 45/119/33
f 48/122/34 43/120/34 41/119/34 47/121/34
f 48/125/35 46/126/35 44/124/35 43/123/35
f 41/123/36 42/128/36 45/127/36 47/125/36

g Pannel
v -5.25 12 -18.75
v -14.75 12 -18.75
v -5.25 12.25 -18.75
v -14.75 12.25 -18.75
v -14.75 12 -21.75
v -14.75 12.25 -21.75
v -5.25 12 -21.75
v -5.25 12.25 -21.75

vt -0.25 0
vt -9.75 0
vt -0.25 0.25
vt -9.75 0.25
vt 2 0
vt -1 0
vt 2 0.25
vt -1 0.25
vt 9.75 0
vt 0.25 0
vt 9.75 0.25
vt 0.25 0.25
vt 1 0
vt -2 0
vt 1 0.25
vt -2 0.25
vt 0.25 2
vt 9.75 2
vt 0.25 -1
vt 9.75 -1
vt -0.25 -1
vt -9.75 -1
vt -0.25 2
vt -9.75 2

vn 0 0 1
vn -1 0 0
vn 0 0 -1
vn 1 0 0
vn 0 1 0
vn 0 -1 0

usemtl ProBuilderDefault
f 51/131/37 52/132/37 50/130/37 49/129/37
f 52/135/38 54/136/38 53/134/38 50/133/38
f 54/139/39 56/140/39 55/138/39 53/137/39
f 56/143/40 51/144/40 49/142/40 55/141/40
f 56/147/41 54/148/41 52/146/41 51/145/41
f 49/151/42 50/152/42 53/150/42 55/149/42

g piller
v -5 0.25 -21.5
v -5.5 0.25 -21.5
v -5 12.5 -21.5
v -5.5 12.5 -21.5
v -5.5 0.25 -22
v -5.5 12.5 -22
v -5 0.25 -22
v -5 12.5 -22

vt 0 0
vt -0.5 0
vt 0 12.25
vt -0.5 12.25
vt -1 0
vt -1 12.25
vt 0.5 0
vt 0.5 12.25
vt 1 0
vt 1 12.25
vt 0 -0.5
vt 0.5 -0.5
vt 0 -1
vt 0.5 -1
vt -0.5 -1
vt -0.5 -0.5

vn 0 0 1
vn -1 0 0
vn 0 0 -1
vn 1 0 0
vn 0 1 0
vn 0 -1 0

usemtl ProBuilderDefault
f 59/155/43 60/156/43 58/154/43 57/153/43
f 60/156/44 62/158/44 61/157/44 58/154/44
f 62/160/45 64/155/45 63/153/45 61/159/45
f 64/162/46 59/160/46 57/159/46 63/161/46
f 64/165/47 62/166/47 60/164/47 59/163/47
f 57/163/48 58/168/48 61/167/48 63/165/48

g piller
v -14.5 0.25 -18.5
v -15 0.25 -18.5
v -14.5 12.5 -18.5
v -15 12.5 -18.5
v -15 0.25 -19
v -15 12.5 -19
v -14.5 0.25 -19
v -14.5 12.5 -19

vt 0 0
vt -0.5 0
vt 0 12.25
vt -0.5 12.25
vt -1 0
vt -1 12.25
vt 0.5 0
vt 0.5 12.25
vt 1 0
vt 1 12.25
vt 0 -0.5
vt 0.5 -0.5
vt 0 -1
vt 0.5 -1
vt -0.5 -1
vt -0.5 -0.5

vn 0 0 1
vn -1 0 0
vn 0 0 -1
vn 1 0 0
vn 0 1 0
vn 0 -1 0

usemtl ProBuilderDefault
f 67/171/49 68/172/49 66/170/49 65/169/49
f 68/172/50 70/174/50 69/173/50 66/170/50
f 70/176/51 72/171/51 71/169/51 69/175/51
f 72/178/52 67/176/52 65/175/52 71/177/52
f 72/181/53 70/182/53 68/180/53 67/179/53
f 65/179/54 66/184/54 69/183/54 71/181/54

